[2020-09-02 11:52:21 +0000] [11345] [INFO] Starting gunicorn 20.0.4
[2020-09-02 11:52:21 +0000] [11345] [INFO] Listening at: http://0.0.0.0:9007 (11345)
[2020-09-02 11:52:21 +0000] [11345] [INFO] Using worker: sync
[2020-09-02 11:52:21 +0000] [11350] [INFO] Booting worker with pid: 11350
hello asdfg-qwer-zxcv-aslaug-1234511
Process video request https://www.youtube.com/watch?v=WN-SHPDAQa8
Video downloaded https://www.youtube.com/watch?v=WN-SHPDAQa8
extract_frames /home/sih/hackbvp/videos_downloaded/www-youtube-com-watch-v-WN-SHPDAQa8.mp4
frame=   35 fps=0.0 q=2.4 size=N/A time=00:00:35.00 bitrate=N/A speed=69.9x    frame=   71 fps= 71 q=3.8 size=N/A time=00:01:11.00 bitrate=N/A speed=70.9x    frame=  108 fps= 72 q=9.6 size=N/A time=00:01:48.00 bitrate=N/A speed=71.9x    frame=  144 fps= 72 q=11.6 size=N/A time=00:02:24.00 bitrate=N/A speed=71.9x    frame=  180 fps= 72 q=15.6 size=N/A time=00:03:00.00 bitrate=N/A speed=71.9x    frame=  216 fps= 72 q=15.9 size=N/A time=00:03:36.00 bitrate=N/A speed=71.9x    frame=  253 fps= 72 q=17.2 size=N/A time=00:04:13.00 bitrate=N/A speed=72.2x    frame=  290 fps= 72 q=17.4 size=N/A time=00:04:50.00 bitrate=N/A speed=72.4x    frame=  326 fps= 72 q=17.9 size=N/A time=00:05:26.00 bitrate=N/A speed=72.4x    frame=  364 fps= 73 q=18.1 size=N/A time=00:06:04.00 bitrate=N/A speed=72.7x    frame=  399 fps= 72 q=17.5 size=N/A time=00:06:39.00 bitrate=N/A speed=72.5x    frame=  435 fps= 72 q=16.5 size=N/A time=00:07:15.00 bitrate=N/A speed=72.4x    frame=  473 fps= 73 q=16.4 size=N/A time=00:07:53.00 bitrate=N/A speed=72.7x    frame=  511 fps= 73 q=13.4 size=N/A time=00:08:31.00 bitrate=N/A speed=72.9x    frame=  547 fps= 73 q=14.1 size=N/A time=00:09:07.00 bitrate=N/A speed=72.9x    frame=  584 fps= 73 q=15.4 size=N/A time=00:09:44.00 bitrate=N/A speed=  73x    frame=  622 fps= 73 q=12.4 size=N/A time=00:10:22.00 bitrate=N/A speed=73.1x    frame=  659 fps= 73 q=8.0 size=N/A time=00:10:59.00 bitrate=N/A speed=73.2x    frame=  696 fps= 73 q=10.5 size=N/A time=00:11:36.00 bitrate=N/A speed=73.2x    frame=  733 fps= 73 q=11.4 size=N/A time=00:12:13.00 bitrate=N/A speed=73.3x    frame=  770 fps= 73 q=13.6 size=N/A time=00:12:50.00 bitrate=N/A speed=73.3x    frame=  806 fps= 73 q=8.4 size=N/A time=00:13:26.00 bitrate=N/A speed=73.2x    frame=  842 fps= 73 q=8.7 size=N/A time=00:14:02.00 bitrate=N/A speed=73.2x    frame=  878 fps= 73 q=8.0 size=N/A time=00:14:38.00 bitrate=N/A speed=73.1x    frame=  913 fps= 73 q=8.3 size=N/A time=00:15:13.00 bitrate=N/A speed=  73x    frame=  949 fps= 73 q=10.7 size=N/A time=00:15:49.00 bitrate=N/A speed=72.9x    frame=  988 fps= 73 q=12.3 size=N/A time=00:16:28.00 bitrate=N/A speed=73.1x    frame= 1025 fps= 73 q=12.8 size=N/A time=00:17:05.00 bitrate=N/A speed=73.2x    frame= 1062 fps= 73 q=13.4 size=N/A time=00:17:42.00 bitrate=N/A speed=73.2x    frame= 1098 fps= 73 q=15.0 size=N/A time=00:18:18.00 bitrate=N/A speed=73.1x    frame= 1135 fps= 73 q=15.5 size=N/A time=00:18:55.00 bitrate=N/A speed=73.2x    frame= 1171 fps= 73 q=15.5 size=N/A time=00:19:31.00 bitrate=N/A speed=73.1x    frame= 1207 fps= 73 q=12.0 size=N/A time=00:20:07.00 bitrate=N/A speed=73.1x    frame= 1243 fps= 73 q=11.7 size=N/A time=00:20:43.00 bitrate=N/A speed=73.1x    frame= 1279 fps= 73 q=11.4 size=N/A time=00:21:19.00 bitrate=N/A speed=  73x    frame= 1316 fps= 73 q=14.0 size=N/A time=00:21:56.00 bitrate=N/A speed=  73x    frame= 1352 fps= 73 q=13.1 size=N/A time=00:22:32.00 bitrate=N/A speed=  73x    frame= 1389 fps= 73 q=12.6 size=N/A time=00:23:09.00 bitrate=N/A speed=  73x    frame= 1426 fps= 73 q=14.6 size=N/A time=00:23:46.00 bitrate=N/A speed=73.1x    frame= 1464 fps= 73 q=15.0 size=N/A time=00:24:24.00 bitrate=N/A speed=73.1x    frame= 1501 fps= 73 q=17.7 size=N/A time=00:25:01.00 bitrate=N/A speed=73.1x    frame= 1536 fps= 73 q=18.4 size=N/A time=00:25:36.00 bitrate=N/A speed=73.1x    frame= 1573 fps= 73 q=17.7 size=N/A time=00:26:13.00 bitrate=N/A speed=73.1x    frame= 1612 fps= 73 q=15.7 size=N/A time=00:26:52.00 bitrate=N/A speed=73.2x    frame= 1649 fps= 73 q=15.8 size=N/A time=00:27:29.00 bitrate=N/A speed=73.2x    frame= 1686 fps= 73 q=4.5 size=N/A time=00:28:06.00 bitrate=N/A speed=73.2x    frame= 1718 fps= 73 q=3.3 size=N/A time=00:28:38.00 bitrate=N/A speed=  73x    frame= 1751 fps= 73 q=3.6 size=N/A time=00:29:11.00 bitrate=N/A speed=72.9x    frame= 1787 fps= 73 q=3.4 size=N/A time=00:29:47.00 bitrate=N/A speed=72.9x    frame= 1817 fps= 73 q=3.5 Lsize=N/A time=00:30:17.00 bitrate=N/A speed=72.9x    
Sending to generate notes:
saving frame and sending to pdf
[2020-09-02 11:53:12 +0000] [11345] [CRITICAL] WORKER TIMEOUT (pid:11350)
notes generation failed
[2020-09-02 11:53:12 +0000] [11350] [INFO] Worker exiting (pid: 11350)
[2020-09-02 11:53:12 +0000] [11384] [INFO] Booting worker with pid: 11384
hello asdfg-qwer-zxcv-aslaug-1234511
Process video request https://www.youtube.com/watch?v=WN-SHPDAQa8
Video downloaded https://www.youtube.com/watch?v=WN-SHPDAQa8
extract_frames /home/sih/hackbvp/videos_downloaded/www-youtube-com-watch-v-WN-SHPDAQa8.mp4
frame=   36 fps=0.0 q=2.5 size=N/A time=00:00:36.00 bitrate=N/A speed=71.9x    frame=   72 fps= 72 q=4.3 size=N/A time=00:01:12.00 bitrate=N/A speed=71.9x    frame=  110 fps= 73 q=9.6 size=N/A time=00:01:50.00 bitrate=N/A speed=73.3x    frame=  147 fps= 73 q=11.6 size=N/A time=00:02:27.00 bitrate=N/A speed=73.4x    frame=  184 fps= 73 q=15.6 size=N/A time=00:03:04.00 bitrate=N/A speed=73.5x    frame=  222 fps= 74 q=16.5 size=N/A time=00:03:42.00 bitrate=N/A speed=73.9x    frame=  260 fps= 74 q=17.4 size=N/A time=00:04:20.00 bitrate=N/A speed=74.2x    frame=  300 fps= 75 q=17.4 size=N/A time=00:05:00.00 bitrate=N/A speed=74.9x    frame=  337 fps= 75 q=18.1 size=N/A time=00:05:37.00 bitrate=N/A speed=74.8x    frame=  376 fps= 75 q=18.7 size=N/A time=00:06:16.00 bitrate=N/A speed=75.1x    frame=  412 fps= 75 q=16.5 size=N/A time=00:06:52.00 bitrate=N/A speed=74.8x    frame=  450 fps= 75 q=16.4 size=N/A time=00:07:30.00 bitrate=N/A speed=74.9x    frame=  489 fps= 75 q=14.0 size=N/A time=00:08:09.00 bitrate=N/A speed=75.1x    frame=  526 fps= 75 q=13.5 size=N/A time=00:08:46.00 bitrate=N/A speed=  75x    frame=  562 fps= 75 q=15.2 size=N/A time=00:09:22.00 bitrate=N/A speed=74.8x    frame=  602 fps= 75 q=15.5 size=N/A time=00:10:02.00 bitrate=N/A speed=75.1x    frame=  640 fps= 75 q=8.9 size=N/A time=00:10:40.00 bitrate=N/A speed=75.2x    frame=  679 fps= 75 q=9.9 size=N/A time=00:11:19.00 bitrate=N/A speed=75.3x    frame=  718 fps= 75 q=10.9 size=N/A time=00:11:58.00 bitrate=N/A speed=75.5x    frame=  755 fps= 75 q=13.1 size=N/A time=00:12:35.00 bitrate=N/A speed=75.4x    frame=  793 fps= 75 q=10.7 size=N/A time=00:13:13.00 bitrate=N/A speed=75.4x    frame=  831 fps= 75 q=7.4 size=N/A time=00:13:51.00 bitrate=N/A speed=75.4x    frame=  866 fps= 75 q=7.6 size=N/A time=00:14:26.00 bitrate=N/A speed=75.2x    frame=  902 fps= 75 q=8.8 size=N/A time=00:15:02.00 bitrate=N/A speed=  75x    frame=  937 fps= 75 q=10.4 size=N/A time=00:15:37.00 bitrate=N/A speed=74.8x    frame=  976 fps= 75 q=11.5 size=N/A time=00:16:16.00 bitrate=N/A speed=74.9x    frame= 1014 fps= 75 q=13.5 size=N/A time=00:16:54.00 bitrate=N/A speed=  75x    frame= 1050 fps= 75 q=12.9 size=N/A time=00:17:30.00 bitrate=N/A speed=74.9x    frame= 1086 fps= 75 q=14.6 size=N/A time=00:18:06.00 bitrate=N/A speed=74.8x    frame= 1125 fps= 75 q=15.5 size=N/A time=00:18:45.00 bitrate=N/A speed=74.9x    frame= 1160 fps= 75 q=15.5 size=N/A time=00:19:20.00 bitrate=N/A speed=74.7x    frame= 1197 fps= 75 q=12.4 size=N/A time=00:19:57.00 bitrate=N/A speed=74.7x    frame= 1234 fps= 75 q=11.4 size=N/A time=00:20:34.00 bitrate=N/A speed=74.7x    frame= 1272 fps= 75 q=11.6 size=N/A time=00:21:12.00 bitrate=N/A speed=74.7x    frame= 1309 fps= 75 q=12.8 size=N/A time=00:21:49.00 bitrate=N/A speed=74.7x    frame= 1348 fps= 75 q=13.2 size=N/A time=00:22:28.00 bitrate=N/A speed=74.8x    frame= 1385 fps= 75 q=12.7 size=N/A time=00:23:05.00 bitrate=N/A speed=74.7x    frame= 1422 fps= 75 q=14.6 size=N/A time=00:23:42.00 bitrate=N/A speed=74.7x    frame= 1460 fps= 75 q=14.9 size=N/A time=00:24:20.00 bitrate=N/A speed=74.7x    frame= 1497 fps= 75 q=17.2 size=N/A time=00:24:57.00 bitrate=N/A speed=74.7x    frame= 1534 fps= 75 q=18.4 size=N/A time=00:25:34.00 bitrate=N/A speed=74.7x    frame= 1572 fps= 75 q=17.7 size=N/A time=00:26:12.00 bitrate=N/A speed=74.7x    frame= 1609 fps= 75 q=15.8 size=N/A time=00:26:49.00 bitrate=N/A speed=74.7x    frame= 1647 fps= 75 q=15.7 size=N/A time=00:27:27.00 bitrate=N/A speed=74.7x    frame= 1684 fps= 75 q=4.6 size=N/A time=00:28:04.00 bitrate=N/A speed=74.7x    frame= 1717 fps= 75 q=3.3 size=N/A time=00:28:37.00 bitrate=N/A speed=74.5x    frame= 1749 fps= 74 q=3.6 size=N/A time=00:29:09.00 bitrate=N/A speed=74.3x    frame= 1783 fps= 74 q=3.4 size=N/A time=00:29:43.00 bitrate=N/A speed=74.2x    frame= 1817 fps= 74 q=3.5 Lsize=N/A time=00:30:17.00 bitrate=N/A speed=74.1x    
Sending to generate notes:
[2020-09-02 11:59:24 +0000] [11345] [CRITICAL] WORKER TIMEOUT (pid:11384)
notes generation failed
[2020-09-02 11:59:24 +0000] [11384] [INFO] Worker exiting (pid: 11384)
[2020-09-02 11:59:24 +0000] [11593] [INFO] Booting worker with pid: 11593
hello asdfg-qwer-zxcv-aslaug-121
Process video request https://www.youtube.com/watch?v=WN-SHPDAQa8
Video downloaded https://www.youtube.com/watch?v=WN-SHPDAQa8
extract_frames /home/sih/hackbvp/videos_downloaded/www-youtube-com-watch-v-WN-SHPDAQa8.mp4
frame=   36 fps=0.0 q=2.5 size=N/A time=00:00:36.00 bitrate=N/A speed=  72x    frame=   71 fps= 71 q=3.8 size=N/A time=00:01:11.00 bitrate=N/A speed=  71x    frame=  108 fps= 72 q=9.6 size=N/A time=00:01:48.00 bitrate=N/A speed=  72x    frame=  145 fps= 72 q=11.6 size=N/A time=00:02:25.00 bitrate=N/A speed=72.4x    frame=  182 fps= 73 q=15.6 size=N/A time=00:03:02.00 bitrate=N/A speed=72.7x    frame=  219 fps= 73 q=16.1 size=N/A time=00:03:39.00 bitrate=N/A speed=72.9x    frame=  256 fps= 73 q=17.3 size=N/A time=00:04:16.00 bitrate=N/A speed=  73x    frame=  293 fps= 73 q=17.5 size=N/A time=00:04:53.00 bitrate=N/A speed=73.1x    frame=  330 fps= 73 q=18.0 size=N/A time=00:05:30.00 bitrate=N/A speed=73.2x    frame=  368 fps= 73 q=18.1 size=N/A time=00:06:08.00 bitrate=N/A speed=73.4x    frame=  405 fps= 73 q=16.9 size=N/A time=00:06:45.00 bitrate=N/A speed=73.5x    frame=  444 fps= 74 q=16.4 size=N/A time=00:07:24.00 bitrate=N/A speed=73.8x    frame=  481 fps= 74 q=14.3 size=N/A time=00:08:01.00 bitrate=N/A speed=73.9x    frame=  517 fps= 74 q=13.5 size=N/A time=00:08:37.00 bitrate=N/A speed=73.7x    frame=  552 fps= 73 q=14.8 size=N/A time=00:09:12.00 bitrate=N/A speed=73.5x    frame=  589 fps= 73 q=15.5 size=N/A time=00:09:49.00 bitrate=N/A speed=73.5x    frame=  626 fps= 73 q=10.8 size=N/A time=00:10:26.00 bitrate=N/A speed=73.5x    frame=  663 fps= 74 q=7.8 size=N/A time=00:11:03.00 bitrate=N/A speed=73.5x    frame=  700 fps= 74 q=10.5 size=N/A time=00:11:40.00 bitrate=N/A speed=73.5x    frame=  738 fps= 74 q=11.6 size=N/A time=00:12:18.00 bitrate=N/A speed=73.6x    frame=  775 fps= 74 q=13.8 size=N/A time=00:12:55.00 bitrate=N/A speed=73.6x    frame=  813 fps= 74 q=8.0 size=N/A time=00:13:33.00 bitrate=N/A speed=73.7x    frame=  849 fps= 74 q=7.6 size=N/A time=00:14:09.00 bitrate=N/A speed=73.6x    frame=  885 fps= 74 q=7.7 size=N/A time=00:14:45.00 bitrate=N/A speed=73.6x    frame=  920 fps= 73 q=9.1 size=N/A time=00:15:20.00 bitrate=N/A speed=73.4x    frame=  956 fps= 73 q=11.1 size=N/A time=00:15:56.00 bitrate=N/A speed=73.4x    frame=  994 fps= 73 q=12.5 size=N/A time=00:16:34.00 bitrate=N/A speed=73.5x    frame= 1030 fps= 73 q=13.0 size=N/A time=00:17:10.00 bitrate=N/A speed=73.4x    frame= 1067 fps= 73 q=13.6 size=N/A time=00:17:47.00 bitrate=N/A speed=73.4x    frame= 1104 fps= 73 q=15.2 size=N/A time=00:18:24.00 bitrate=N/A speed=73.5x    frame= 1141 fps= 73 q=15.5 size=N/A time=00:19:01.00 bitrate=N/A speed=73.5x    frame= 1178 fps= 73 q=15.5 size=N/A time=00:19:38.00 bitrate=N/A speed=73.5x    frame= 1214 fps= 73 q=11.7 size=N/A time=00:20:14.00 bitrate=N/A speed=73.4x    frame= 1251 fps= 73 q=12.6 size=N/A time=00:20:51.00 bitrate=N/A speed=73.5x    frame= 1289 fps= 74 q=11.4 size=N/A time=00:21:29.00 bitrate=N/A speed=73.5x    frame= 1325 fps= 73 q=14.6 size=N/A time=00:22:05.00 bitrate=N/A speed=73.5x    frame= 1362 fps= 73 q=13.0 size=N/A time=00:22:42.00 bitrate=N/A speed=73.5x    frame= 1398 fps= 73 q=13.1 size=N/A time=00:23:18.00 bitrate=N/A speed=73.5x    frame= 1434 fps= 73 q=14.6 size=N/A time=00:23:54.00 bitrate=N/A speed=73.4x    frame= 1474 fps= 74 q=15.5 size=N/A time=00:24:34.00 bitrate=N/A speed=73.6x    frame= 1510 fps= 74 q=17.8 size=N/A time=00:25:10.00 bitrate=N/A speed=73.5x    frame= 1545 fps= 73 q=16.4 size=N/A time=00:25:45.00 bitrate=N/A speed=73.5x    frame= 1581 fps= 73 q=17.9 size=N/A time=00:26:21.00 bitrate=N/A speed=73.4x    frame= 1618 fps= 73 q=15.5 size=N/A time=00:26:58.00 bitrate=N/A speed=73.4x    frame= 1657 fps= 74 q=12.7 size=N/A time=00:27:37.00 bitrate=N/A speed=73.5x    frame= 1693 fps= 73 q=4.5 size=N/A time=00:28:13.00 bitrate=N/A speed=73.5x    frame= 1726 fps= 73 q=3.0 size=N/A time=00:28:46.00 bitrate=N/A speed=73.3x    frame= 1757 fps= 73 q=3.9 size=N/A time=00:29:17.00 bitrate=N/A speed=73.1x    frame= 1793 fps= 73 q=3.2 size=N/A time=00:29:53.00 bitrate=N/A speed=73.1x    frame= 1817 fps= 73 q=3.5 Lsize=N/A time=00:30:17.00 bitrate=N/A speed=73.1x    
Sending to generate notes:
saving frame and sending to pdf
[2020-09-02 11:59:56 +0000] [11345] [CRITICAL] WORKER TIMEOUT (pid:11593)
notes generation failed
[2020-09-02 11:59:56 +0000] [11593] [INFO] Worker exiting (pid: 11593)
[2020-09-02 11:59:56 +0000] [11614] [INFO] Booting worker with pid: 11614
[2020-09-02 12:00:38 +0000] [11345] [INFO] Handling signal: int
[2020-09-02 12:00:38 +0000] [11614] [INFO] Worker exiting (pid: 11614)
[2020-09-02 12:00:39 +0000] [11345] [INFO] Shutting down: Master
[2020-09-02 12:01:25 +0000] [11659] [INFO] Starting gunicorn 20.0.4
[2020-09-02 12:01:25 +0000] [11659] [INFO] Listening at: http://0.0.0.0:9007 (11659)
[2020-09-02 12:01:25 +0000] [11659] [INFO] Using worker: sync
[2020-09-02 12:01:25 +0000] [11662] [INFO] Booting worker with pid: 11662
hello asdfg-qwer-zxcv-aslaug-121
Process video request https://www.youtube.com/watch?v=WN-SHPDAQa8
Video downloaded https://www.youtube.com/watch?v=WN-SHPDAQa8
extract_frames /home/sih/hackbvp/videos_downloaded/www-youtube-com-watch-v-WN-SHPDAQa8.mp4
frame=   35 fps=0.0 q=2.4 size=N/A time=00:00:35.00 bitrate=N/A speed=69.8x    frame=   70 fps= 70 q=3.3 size=N/A time=00:01:10.00 bitrate=N/A speed=69.9x    frame=  106 fps= 71 q=9.6 size=N/A time=00:01:46.00 bitrate=N/A speed=70.5x    frame=  142 fps= 71 q=11.3 size=N/A time=00:02:22.00 bitrate=N/A speed=70.9x    frame=  178 fps= 71 q=15.6 size=N/A time=00:02:58.00 bitrate=N/A speed=71.1x    frame=  215 fps= 72 q=15.8 size=N/A time=00:03:35.00 bitrate=N/A speed=71.6x    frame=  254 fps= 72 q=17.2 size=N/A time=00:04:14.00 bitrate=N/A speed=72.5x    frame=  293 fps= 73 q=17.5 size=N/A time=00:04:53.00 bitrate=N/A speed=73.2x    frame=  330 fps= 73 q=18.0 size=N/A time=00:05:30.00 bitrate=N/A speed=73.3x    frame=  368 fps= 74 q=18.1 size=N/A time=00:06:08.00 bitrate=N/A speed=73.5x    frame=  404 fps= 73 q=17.0 size=N/A time=00:06:44.00 bitrate=N/A speed=73.4x    frame=  441 fps= 73 q=16.3 size=N/A time=00:07:21.00 bitrate=N/A speed=73.4x    frame=  477 fps= 73 q=14.9 size=N/A time=00:07:57.00 bitrate=N/A speed=73.3x    frame=  516 fps= 74 q=13.5 size=N/A time=00:08:36.00 bitrate=N/A speed=73.6x    frame=  552 fps= 73 q=14.8 size=N/A time=00:09:12.00 bitrate=N/A speed=73.5x    frame=  590 fps= 74 q=15.5 size=N/A time=00:09:50.00 bitrate=N/A speed=73.6x    frame=  627 fps= 74 q=10.5 size=N/A time=00:10:27.00 bitrate=N/A speed=73.6x    frame=  664 fps= 74 q=7.8 size=N/A time=00:11:04.00 bitrate=N/A speed=73.7x    frame=  701 fps= 74 q=10.5 size=N/A time=00:11:41.00 bitrate=N/A speed=73.7x    frame=  738 fps= 74 q=11.6 size=N/A time=00:12:18.00 bitrate=N/A speed=73.7x    frame=  774 fps= 74 q=13.7 size=N/A time=00:12:54.00 bitrate=N/A speed=73.6x    frame=  812 fps= 74 q=8.1 size=N/A time=00:13:32.00 bitrate=N/A speed=73.7x    frame=  848 fps= 74 q=7.9 size=N/A time=00:14:08.00 bitrate=N/A speed=73.6x    frame=  884 fps= 74 q=7.7 size=N/A time=00:14:44.00 bitrate=N/A speed=73.5x    frame=  921 fps= 74 q=9.2 size=N/A time=00:15:21.00 bitrate=N/A speed=73.6x    frame=  958 fps= 74 q=11.3 size=N/A time=00:15:58.00 bitrate=N/A speed=73.6x    frame=  995 fps= 74 q=12.5 size=N/A time=00:16:35.00 bitrate=N/A speed=73.6x    frame= 1031 fps= 74 q=13.1 size=N/A time=00:17:11.00 bitrate=N/A speed=73.5x    frame= 1067 fps= 73 q=13.6 size=N/A time=00:17:47.00 bitrate=N/A speed=73.5x    frame= 1103 fps= 73 q=15.2 size=N/A time=00:18:23.00 bitrate=N/A speed=73.4x    frame= 1140 fps= 73 q=15.5 size=N/A time=00:19:00.00 bitrate=N/A speed=73.4x    frame= 1176 fps= 73 q=15.6 size=N/A time=00:19:36.00 bitrate=N/A speed=73.4x    frame= 1212 fps= 73 q=11.8 size=N/A time=00:20:12.00 bitrate=N/A speed=73.3x    frame= 1249 fps= 73 q=12.5 size=N/A time=00:20:49.00 bitrate=N/A speed=73.4x    frame= 1286 fps= 73 q=11.4 size=N/A time=00:21:26.00 bitrate=N/A speed=73.4x    frame= 1324 fps= 73 q=14.6 size=N/A time=00:22:04.00 bitrate=N/A speed=73.4x    frame= 1362 fps= 74 q=13.0 size=N/A time=00:22:42.00 bitrate=N/A speed=73.5x    frame= 1401 fps= 74 q=13.6 size=N/A time=00:23:21.00 bitrate=N/A speed=73.6x    frame= 1437 fps= 74 q=14.7 size=N/A time=00:23:57.00 bitrate=N/A speed=73.6x    frame= 1475 fps= 74 q=15.6 size=N/A time=00:24:35.00 bitrate=N/A speed=73.6x    frame= 1512 fps= 74 q=17.9 size=N/A time=00:25:12.00 bitrate=N/A speed=73.6x    frame= 1550 fps= 74 q=16.7 size=N/A time=00:25:50.00 bitrate=N/A speed=73.7x    frame= 1588 fps= 74 q=18.1 size=N/A time=00:26:28.00 bitrate=N/A speed=73.8x    frame= 1627 fps= 74 q=15.5 size=N/A time=00:27:07.00 bitrate=N/A speed=73.9x    frame= 1665 fps= 74 q=5.9 size=N/A time=00:27:45.00 bitrate=N/A speed=73.9x    frame= 1700 fps= 74 q=4.4 size=N/A time=00:28:20.00 bitrate=N/A speed=73.8x    frame= 1733 fps= 74 q=2.7 size=N/A time=00:28:53.00 bitrate=N/A speed=73.6x    frame= 1766 fps= 73 q=5.8 size=N/A time=00:29:26.00 bitrate=N/A speed=73.5x    frame= 1803 fps= 73 q=3.5 size=N/A time=00:30:03.00 bitrate=N/A speed=73.5x    frame= 1817 fps= 73 q=3.5 Lsize=N/A time=00:30:17.00 bitrate=N/A speed=73.5x    
Sending to generate notes:
saving frame and sending to pdf
saving frame and sending to pdf
saving frame and sending to pdf
saving frame and sending to pdf
saving frame and sending to pdf
saving frame and sending to pdf
saving frame and sending to pdf
saving frame and sending to pdf
saving frame and sending to pdf
saving frame and sending to pdf
saving frame and sending to pdf
saving frame and sending to pdf
saving frame and sending to pdf
saving frame and sending to pdf
=======found repeated====== 0.9899301753431646
=======found repeated====== 0.9752664854825935
saving frame and sending to pdf
saving frame and sending to pdf
saving frame and sending to pdf
=======found repeated====== 0.9404352008083298
=======found repeated====== 0.9801812399421622
saving frame and sending to pdf
=======found repeated====== 0.9452565197190514
=======found repeated====== 0.9621065516987283
saving frame and sending to pdf
saving frame and sending to pdf
saving frame and sending to pdf
saving frame and sending to pdf
saving frame and sending to pdf
saving frame and sending to pdf
saving frame and sending to pdf
saving frame and sending to pdf
saving frame and sending to pdf
saving frame and sending to pdf
=======found repeated====== 0.9895524849880526
=======found repeated====== 0.9643171840453534
saving frame and sending to pdf
saving frame and sending to pdf
saving frame and sending to pdf
saving frame and sending to pdf
saving frame and sending to pdf
saving frame and sending to pdf
saving frame and sending to pdf
saving frame and sending to pdf
http://cloudfrontvideo.gradeup.co/video_change_frames/asdfg-qwer-zxcv-aslaug-121/pdf/asdfg-qwer-zxcv-aslaug-121.pdf
Notes Are generated: 
hello asdfg-qwer-zxcv-aslaug73
Process video request https://www.youtube.com/watch?v=WN-SHPDAQa8
Video downloaded https://www.youtube.com/watch?v=WN-SHPDAQa8
extract_frames /home/sih/hackbvp/videos_downloaded/www-youtube-com-watch-v-WN-SHPDAQa8.mp4
frame=   34 fps=0.0 q=2.3 size=N/A time=00:00:34.00 bitrate=N/A speed=67.7x    frame=   67 fps= 67 q=3.5 size=N/A time=00:01:07.00 bitrate=N/A speed=66.8x    frame=  103 fps= 68 q=9.6 size=N/A time=00:01:43.00 bitrate=N/A speed=68.4x    frame=  138 fps= 69 q=10.7 size=N/A time=00:02:18.00 bitrate=N/A speed=68.8x    frame=  175 fps= 70 q=15.6 size=N/A time=00:02:55.00 bitrate=N/A speed=69.8x    frame=  211 fps= 70 q=15.8 size=N/A time=00:03:31.00 bitrate=N/A speed=70.2x    frame=  247 fps= 70 q=17.1 size=N/A time=00:04:07.00 bitrate=N/A speed=70.4x    frame=  284 fps= 71 q=17.5 size=N/A time=00:04:44.00 bitrate=N/A speed=70.8x    frame=  322 fps= 71 q=17.9 size=N/A time=00:05:22.00 bitrate=N/A speed=71.4x    frame=  359 fps= 72 q=18.1 size=N/A time=00:05:59.00 bitrate=N/A speed=71.7x    frame=  395 fps= 72 q=18.8 size=N/A time=00:06:35.00 bitrate=N/A speed=71.7x    frame=  432 fps= 72 q=16.5 size=N/A time=00:07:12.00 bitrate=N/A speed=71.9x    frame=  469 fps= 72 q=16.4 size=N/A time=00:07:49.00 bitrate=N/A speed=  72x    frame=  508 fps= 72 q=13.4 size=N/A time=00:08:28.00 bitrate=N/A speed=72.4x    frame=  542 fps= 72 q=13.8 size=N/A time=00:09:02.00 bitrate=N/A speed=72.2x    frame=  580 fps= 72 q=15.5 size=N/A time=00:09:40.00 bitrate=N/A speed=72.4x    frame=  616 fps= 72 q=15.6 size=N/A time=00:10:16.00 bitrate=N/A speed=72.4x    frame=  653 fps= 72 q=8.2 size=N/A time=00:10:53.00 bitrate=N/A speed=72.5x    frame=  689 fps= 72 q=10.3 size=N/A time=00:11:29.00 bitrate=N/A speed=72.4x    frame=  727 fps= 73 q=11.2 size=N/A time=00:12:07.00 bitrate=N/A speed=72.6x    frame=  764 fps= 73 q=13.6 size=N/A time=00:12:44.00 bitrate=N/A speed=72.7x    frame=  802 fps= 73 q=8.9 size=N/A time=00:13:22.00 bitrate=N/A speed=72.8x    frame=  839 fps= 73 q=8.3 size=N/A time=00:13:59.00 bitrate=N/A speed=72.9x    frame=  876 fps= 73 q=8.3 size=N/A time=00:14:36.00 bitrate=N/A speed=72.9x    frame=  913 fps= 73 q=8.3 size=N/A time=00:15:13.00 bitrate=N/A speed=72.9x    frame=  950 fps= 73 q=10.8 size=N/A time=00:15:50.00 bitrate=N/A speed=  73x    frame=  988 fps= 73 q=12.3 size=N/A time=00:16:28.00 bitrate=N/A speed=73.1x    frame= 1026 fps= 73 q=12.8 size=N/A time=00:17:06.00 bitrate=N/A speed=73.2x    frame= 1064 fps= 73 q=13.5 size=N/A time=00:17:44.00 bitrate=N/A speed=73.3x    frame= 1102 fps= 73 q=15.1 size=N/A time=00:18:22.00 bitrate=N/A speed=73.4x    frame= 1138 fps= 73 q=15.6 size=N/A time=00:18:58.00 bitrate=N/A speed=73.3x    frame= 1174 fps= 73 q=15.5 size=N/A time=00:19:34.00 bitrate=N/A speed=73.3x    frame= 1211 fps= 73 q=11.8 size=N/A time=00:20:11.00 bitrate=N/A speed=73.3x    frame= 1248 fps= 73 q=12.4 size=N/A time=00:20:48.00 bitrate=N/A speed=73.3x    frame= 1286 fps= 73 q=11.4 size=N/A time=00:21:26.00 bitrate=N/A speed=73.4x    frame= 1323 fps= 73 q=14.6 size=N/A time=00:22:03.00 bitrate=N/A speed=73.4x    frame= 1362 fps= 74 q=13.0 size=N/A time=00:22:42.00 bitrate=N/A speed=73.5x    frame= 1400 fps= 74 q=13.4 size=N/A time=00:23:20.00 bitrate=N/A speed=73.6x    frame= 1436 fps= 74 q=14.6 size=N/A time=00:23:56.00 bitrate=N/A speed=73.6x    frame= 1475 fps= 74 q=15.6 size=N/A time=00:24:35.00 bitrate=N/A speed=73.7x    frame= 1512 fps= 74 q=17.9 size=N/A time=00:25:12.00 bitrate=N/A speed=73.7x    frame= 1548 fps= 74 q=16.6 size=N/A time=00:25:48.00 bitrate=N/A speed=73.6x    frame= 1586 fps= 74 q=18.1 size=N/A time=00:26:26.00 bitrate=N/A speed=73.7x    frame= 1626 fps= 74 q=15.5 size=N/A time=00:27:06.00 bitrate=N/A speed=73.8x    frame= 1662 fps= 74 q=7.0 size=N/A time=00:27:42.00 bitrate=N/A speed=73.8x    frame= 1697 fps= 74 q=4.5 size=N/A time=00:28:17.00 bitrate=N/A speed=73.7x    frame= 1731 fps= 74 q=2.8 size=N/A time=00:28:51.00 bitrate=N/A speed=73.6x    frame= 1765 fps= 73 q=5.8 size=N/A time=00:29:25.00 bitrate=N/A speed=73.4x    frame= 1801 fps= 73 q=3.5 size=N/A time=00:30:01.00 bitrate=N/A speed=73.4x    frame= 1817 fps= 73 q=3.5 Lsize=N/A time=00:30:17.00 bitrate=N/A speed=73.4x    
Sending to generate notes:
saving frame and sending to pdf
saving frame and sending to pdf
saving frame and sending to pdf
saving frame and sending to pdf
saving frame and sending to pdf
saving frame and sending to pdf
saving frame and sending to pdf
saving frame and sending to pdf
saving frame and sending to pdf
saving frame and sending to pdf
saving frame and sending to pdf
saving frame and sending to pdf
saving frame and sending to pdf
saving frame and sending to pdf
=======found repeated====== 0.9899301753431646
=======found repeated====== 0.9752664854825935
saving frame and sending to pdf
saving frame and sending to pdf
saving frame and sending to pdf
=======found repeated====== 0.9404352008083298
=======found repeated====== 0.9801812399421622
saving frame and sending to pdf
=======found repeated====== 0.9452565197190514
=======found repeated====== 0.9621065516987283
saving frame and sending to pdf
saving frame and sending to pdf
saving frame and sending to pdf
saving frame and sending to pdf
saving frame and sending to pdf
saving frame and sending to pdf
saving frame and sending to pdf
saving frame and sending to pdf
saving frame and sending to pdf
saving frame and sending to pdf
=======found repeated====== 0.9895524849880526
=======found repeated====== 0.9643171840453534
saving frame and sending to pdf
saving frame and sending to pdf
saving frame and sending to pdf
saving frame and sending to pdf
saving frame and sending to pdf
saving frame and sending to pdf
saving frame and sending to pdf
saving frame and sending to pdf
http://cloudfrontvideo.gradeup.co/video_change_frames/asdfg-qwer-zxcv-aslaug73/pdf/asdfg-qwer-zxcv-aslaug73.pdf
Notes Are generated: 
hello asdfg-qwer-zxcv-aslaug74
Process video request https://www.youtube.com/watch?v=WN-SHPDAQa8
Video downloaded https://www.youtube.com/watch?v=WN-SHPDAQa8
extract_frames /home/sih/hackbvp/videos_downloaded/www-youtube-com-watch-v-WN-SHPDAQa8.mp4
frame=   33 fps=0.0 q=2.2 size=N/A time=00:00:33.00 bitrate=N/A speed=65.9x    frame=   69 fps= 69 q=3.5 size=N/A time=00:01:09.00 bitrate=N/A speed=68.8x    frame=  103 fps= 69 q=9.6 size=N/A time=00:01:43.00 bitrate=N/A speed=68.6x    frame=  137 fps= 68 q=10.6 size=N/A time=00:02:17.00 bitrate=N/A speed=68.4x    frame=  170 fps= 68 q=15.3 size=N/A time=00:02:50.00 bitrate=N/A speed=67.9x    frame=  204 fps= 68 q=15.7 size=N/A time=00:03:24.00 bitrate=N/A speed=67.9x    frame=  240 fps= 68 q=17.8 size=N/A time=00:04:00.00 bitrate=N/A speed=68.5x    frame=  276 fps= 69 q=17.5 size=N/A time=00:04:36.00 bitrate=N/A speed=68.9x    frame=  310 fps= 69 q=17.6 size=N/A time=00:05:10.00 bitrate=N/A speed=68.8x    frame=  345 fps= 69 q=18.0 size=N/A time=00:05:45.00 bitrate=N/A speed=68.9x    frame=  381 fps= 69 q=19.3 size=N/A time=00:06:21.00 bitrate=N/A speed=69.2x    frame=  414 fps= 69 q=16.4 size=N/A time=00:06:54.00 bitrate=N/A speed=68.9x    frame=  449 fps= 69 q=16.5 size=N/A time=00:07:29.00 bitrate=N/A speed=  69x    frame=  484 fps= 69 q=14.2 size=N/A time=00:08:04.00 bitrate=N/A speed=69.1x    frame=  520 fps= 69 q=13.6 size=N/A time=00:08:40.00 bitrate=N/A speed=69.3x    frame=  554 fps= 69 q=14.8 size=N/A time=00:09:14.00 bitrate=N/A speed=69.2x    frame=  588 fps= 69 q=15.5 size=N/A time=00:09:48.00 bitrate=N/A speed=69.1x    frame=  625 fps= 69 q=11.1 size=N/A time=00:10:25.00 bitrate=N/A speed=69.4x    frame=  661 fps= 70 q=7.9 size=N/A time=00:11:01.00 bitrate=N/A speed=69.5x    frame=  696 fps= 70 q=10.5 size=N/A time=00:11:36.00 bitrate=N/A speed=69.5x    frame=  732 fps= 70 q=11.3 size=N/A time=00:12:12.00 bitrate=N/A speed=69.6x    frame=  768 fps= 70 q=13.6 size=N/A time=00:12:48.00 bitrate=N/A speed=69.7x    frame=  803 fps= 70 q=8.8 size=N/A time=00:13:23.00 bitrate=N/A speed=69.7x    frame=  838 fps= 70 q=8.2 size=N/A time=00:13:58.00 bitrate=N/A speed=69.7x    frame=  873 fps= 70 q=8.8 size=N/A time=00:14:33.00 bitrate=N/A speed=69.8x    frame=  910 fps= 70 q=8.1 size=N/A time=00:15:10.00 bitrate=N/A speed=69.9x    frame=  944 fps= 70 q=10.5 size=N/A time=00:15:44.00 bitrate=N/A speed=69.8x    frame=  978 fps= 70 q=11.1 size=N/A time=00:16:18.00 bitrate=N/A speed=69.8x    frame= 1014 fps= 70 q=13.5 size=N/A time=00:16:54.00 bitrate=N/A speed=69.9x    frame= 1051 fps= 70 q=13.4 size=N/A time=00:17:31.00 bitrate=N/A speed=  70x    frame= 1085 fps= 70 q=14.6 size=N/A time=00:18:05.00 bitrate=N/A speed=69.9x    frame= 1122 fps= 70 q=15.5 size=N/A time=00:18:42.00 bitrate=N/A speed=  70x    frame= 1157 fps= 70 q=15.4 size=N/A time=00:19:17.00 bitrate=N/A speed=  70x    frame= 1194 fps= 70 q=12.4 size=N/A time=00:19:54.00 bitrate=N/A speed=70.2x    frame= 1229 fps= 70 q=11.5 size=N/A time=00:20:29.00 bitrate=N/A speed=70.1x    frame= 1266 fps= 70 q=12.3 size=N/A time=00:21:06.00 bitrate=N/A speed=70.3x    frame= 1303 fps= 70 q=11.9 size=N/A time=00:21:43.00 bitrate=N/A speed=70.4x    frame= 1339 fps= 70 q=13.3 size=N/A time=00:22:19.00 bitrate=N/A speed=70.4x    frame= 1376 fps= 70 q=12.8 size=N/A time=00:22:56.00 bitrate=N/A speed=70.5x    frame= 1411 fps= 70 q=14.4 size=N/A time=00:23:31.00 bitrate=N/A speed=70.5x    frame= 1447 fps= 71 q=14.6 size=N/A time=00:24:07.00 bitrate=N/A speed=70.5x    frame= 1487 fps= 71 q=16.3 size=N/A time=00:24:47.00 bitrate=N/A speed=70.7x    frame= 1522 fps= 71 q=18.2 size=N/A time=00:25:22.00 bitrate=N/A speed=70.7x    frame= 1559 fps= 71 q=16.5 size=N/A time=00:25:59.00 bitrate=N/A speed=70.8x    frame= 1595 fps= 71 q=16.2 size=N/A time=00:26:35.00 bitrate=N/A speed=70.8x    frame= 1634 fps= 71 q=15.4 size=N/A time=00:27:14.00 bitrate=N/A speed=  71x    frame= 1672 fps= 71 q=4.7 size=N/A time=00:27:52.00 bitrate=N/A speed=71.1x    frame= 1705 fps= 71 q=4.4 size=N/A time=00:28:25.00 bitrate=N/A speed=  71x    frame= 1739 fps= 71 q=2.6 size=N/A time=00:28:59.00 bitrate=N/A speed=70.9x    frame= 1773 fps= 71 q=4.6 size=N/A time=00:29:33.00 bitrate=N/A speed=70.8x    frame= 1811 fps= 71 q=3.5 size=N/A time=00:30:11.00 bitrate=N/A speed=70.9x    frame= 1817 fps= 71 q=3.5 Lsize=N/A time=00:30:17.00 bitrate=N/A speed=  71x    
Sending to generate notes:
saving frame and sending to pdf
saving frame and sending to pdf
saving frame and sending to pdf
saving frame and sending to pdf
saving frame and sending to pdf
saving frame and sending to pdf
saving frame and sending to pdf
saving frame and sending to pdf
saving frame and sending to pdf
saving frame and sending to pdf
saving frame and sending to pdf
saving frame and sending to pdf
saving frame and sending to pdf
saving frame and sending to pdf
=======found repeated====== 0.9899301753431646
=======found repeated====== 0.9752664854825935
saving frame and sending to pdf
saving frame and sending to pdf
saving frame and sending to pdf
=======found repeated====== 0.9404352008083298
=======found repeated====== 0.9801812399421622
saving frame and sending to pdf
=======found repeated====== 0.9452565197190514
=======found repeated====== 0.9621065516987283
saving frame and sending to pdf
saving frame and sending to pdf
saving frame and sending to pdf
saving frame and sending to pdf
saving frame and sending to pdf
saving frame and sending to pdf
saving frame and sending to pdf
saving frame and sending to pdf
saving frame and sending to pdf
saving frame and sending to pdf
=======found repeated====== 0.9895524849880526
=======found repeated====== 0.9643171840453534
saving frame and sending to pdf
saving frame and sending to pdf
saving frame and sending to pdf
saving frame and sending to pdf
saving frame and sending to pdf
saving frame and sending to pdf
saving frame and sending to pdf
saving frame and sending to pdf
http://cloudfrontvideo.gradeup.co/video_change_frames/asdfg-qwer-zxcv-aslaug74/pdf/asdfg-qwer-zxcv-aslaug74.pdf
Notes Are generated: 
hello asdfg-qwer-zxcv-aslaug41
Process video request https://www.youtube.com/watch?v=WN-SHPDAQa8
Video downloaded https://www.youtube.com/watch?v=WN-SHPDAQa8
extract_frames /home/sih/hackbvp/videos_downloaded/www-youtube-com-watch-v-WN-SHPDAQa8.mp4
frame=   34 fps=0.0 q=2.3 size=N/A time=00:00:34.00 bitrate=N/A speed=67.6x    frame=   69 fps= 69 q=3.5 size=N/A time=00:01:09.00 bitrate=N/A speed=68.8x    frame=  105 fps= 70 q=9.6 size=N/A time=00:01:45.00 bitrate=N/A speed=69.8x    frame=  141 fps= 70 q=11.1 size=N/A time=00:02:21.00 bitrate=N/A speed=70.3x    frame=  178 fps= 71 q=15.6 size=N/A time=00:02:58.00 bitrate=N/A speed=  71x    frame=  217 fps= 72 q=15.9 size=N/A time=00:03:37.00 bitrate=N/A speed=72.2x    frame=  254 fps= 72 q=17.2 size=N/A time=00:04:14.00 bitrate=N/A speed=72.4x    frame=  291 fps= 73 q=17.4 size=N/A time=00:04:51.00 bitrate=N/A speed=72.6x    frame=  326 fps= 72 q=17.9 size=N/A time=00:05:26.00 bitrate=N/A speed=72.3x    frame=  362 fps= 72 q=18.1 size=N/A time=00:06:02.00 bitrate=N/A speed=72.3x    frame=  397 fps= 72 q=18.0 size=N/A time=00:06:37.00 bitrate=N/A speed=72.1x    frame=  434 fps= 72 q=16.5 size=N/A time=00:07:14.00 bitrate=N/A speed=72.2x    frame=  471 fps= 72 q=16.5 size=N/A time=00:07:51.00 bitrate=N/A speed=72.4x    frame=  509 fps= 73 q=13.4 size=N/A time=00:08:29.00 bitrate=N/A speed=72.6x    frame=  544 fps= 72 q=13.6 size=N/A time=00:09:04.00 bitrate=N/A speed=72.4x    frame=  581 fps= 73 q=15.5 size=N/A time=00:09:41.00 bitrate=N/A speed=72.5x    frame=  618 fps= 73 q=15.6 size=N/A time=00:10:18.00 bitrate=N/A speed=72.6x    frame=  656 fps= 73 q=8.1 size=N/A time=00:10:56.00 bitrate=N/A speed=72.8x    frame=  693 fps= 73 q=10.5 size=N/A time=00:11:33.00 bitrate=N/A speed=72.9x    frame=  730 fps= 73 q=11.2 size=N/A time=00:12:10.00 bitrate=N/A speed=72.9x    frame=  768 fps= 73 q=13.6 size=N/A time=00:12:48.00 bitrate=N/A speed=  73x    frame=  805 fps= 73 q=8.6 size=N/A time=00:13:25.00 bitrate=N/A speed=73.1x    frame=  844 fps= 73 q=8.8 size=N/A time=00:14:04.00 bitrate=N/A speed=73.3x    frame=  880 fps= 73 q=7.8 size=N/A time=00:14:40.00 bitrate=N/A speed=73.2x    frame=  918 fps= 73 q=8.9 size=N/A time=00:15:18.00 bitrate=N/A speed=73.3x    frame=  954 fps= 73 q=11.0 size=N/A time=00:15:54.00 bitrate=N/A speed=73.3x    frame=  990 fps= 73 q=12.5 size=N/A time=00:16:30.00 bitrate=N/A speed=73.2x    frame= 1025 fps= 73 q=12.8 size=N/A time=00:17:05.00 bitrate=N/A speed=73.1x    frame= 1063 fps= 73 q=13.5 size=N/A time=00:17:43.00 bitrate=N/A speed=73.2x    frame= 1100 fps= 73 q=15.1 size=N/A time=00:18:20.00 bitrate=N/A speed=73.2x    frame= 1137 fps= 73 q=15.5 size=N/A time=00:18:57.00 bitrate=N/A speed=73.2x    frame= 1172 fps= 73 q=15.6 size=N/A time=00:19:32.00 bitrate=N/A speed=73.1x    frame= 1209 fps= 73 q=11.9 size=N/A time=00:20:09.00 bitrate=N/A speed=73.2x    frame= 1247 fps= 73 q=12.2 size=N/A time=00:20:47.00 bitrate=N/A speed=73.2x    frame= 1284 fps= 73 q=11.4 size=N/A time=00:21:24.00 bitrate=N/A speed=73.3x    frame= 1321 fps= 73 q=14.6 size=N/A time=00:22:01.00 bitrate=N/A speed=73.3x    frame= 1359 fps= 73 q=13.1 size=N/A time=00:22:39.00 bitrate=N/A speed=73.4x    frame= 1395 fps= 73 q=12.8 size=N/A time=00:23:15.00 bitrate=N/A speed=73.3x    frame= 1431 fps= 73 q=14.5 size=N/A time=00:23:51.00 bitrate=N/A speed=73.3x    frame= 1468 fps= 73 q=15.2 size=N/A time=00:24:28.00 bitrate=N/A speed=73.3x    frame= 1505 fps= 73 q=17.7 size=N/A time=00:25:05.00 bitrate=N/A speed=73.3x    frame= 1539 fps= 73 q=17.9 size=N/A time=00:25:39.00 bitrate=N/A speed=73.2x    frame= 1575 fps= 73 q=17.7 size=N/A time=00:26:15.00 bitrate=N/A speed=73.2x    frame= 1613 fps= 73 q=15.7 size=N/A time=00:26:53.00 bitrate=N/A speed=73.2x    frame= 1652 fps= 73 q=16.1 size=N/A time=00:27:32.00 bitrate=N/A speed=73.3x    frame= 1687 fps= 73 q=4.5 size=N/A time=00:28:07.00 bitrate=N/A speed=73.3x    frame= 1719 fps= 73 q=3.2 size=N/A time=00:28:39.00 bitrate=N/A speed=73.1x    frame= 1752 fps= 73 q=3.6 size=N/A time=00:29:12.00 bitrate=N/A speed=72.9x    frame= 1787 fps= 73 q=3.4 size=N/A time=00:29:47.00 bitrate=N/A speed=72.8x    frame= 1817 fps= 73 q=3.5 Lsize=N/A time=00:30:17.00 bitrate=N/A speed=72.8x    
Sending to generate notes:
saving frame and sending to pdf
saving frame and sending to pdf
saving frame and sending to pdf
saving frame and sending to pdf
saving frame and sending to pdf
saving frame and sending to pdf
saving frame and sending to pdf
saving frame and sending to pdf
saving frame and sending to pdf
saving frame and sending to pdf
saving frame and sending to pdf
saving frame and sending to pdf
saving frame and sending to pdf
saving frame and sending to pdf
=======found repeated====== 0.9899301753431646
=======found repeated====== 0.9752664854825935
saving frame and sending to pdf
saving frame and sending to pdf
saving frame and sending to pdf
=======found repeated====== 0.9404352008083298
=======found repeated====== 0.9801812399421622
saving frame and sending to pdf
=======found repeated====== 0.9452565197190514
=======found repeated====== 0.9621065516987283
saving frame and sending to pdf
saving frame and sending to pdf
saving frame and sending to pdf
saving frame and sending to pdf
saving frame and sending to pdf
saving frame and sending to pdf
saving frame and sending to pdf
saving frame and sending to pdf
saving frame and sending to pdf
saving frame and sending to pdf
=======found repeated====== 0.9895524849880526
=======found repeated====== 0.9643171840453534
saving frame and sending to pdf
saving frame and sending to pdf
saving frame and sending to pdf
saving frame and sending to pdf
saving frame and sending to pdf
saving frame and sending to pdf
saving frame and sending to pdf
saving frame and sending to pdf
http://cloudfrontvideo.gradeup.co/video_change_frames/asdfg-qwer-zxcv-aslaug41/pdf/asdfg-qwer-zxcv-aslaug41.pdf
Notes Are generated: 
